<?xml version="1.0" encoding="UTF-8"?>
<!DOCTYPE svg PUBLIC "-//W3C//DTD SVG 1.1//EN" "http://www.w3.org/Graphics/SVG/1.1/DTD/svg11.dtd">
<!-- Creator: CorelDRAW 2020 (64 Bit) -->
<svg xmlns="http://www.w3.org/2000/svg" xml:space="preserve" width="520mm" height="215mm" version="1.1" style="shape-rendering:geometricPrecision; text-rendering:geometricPrecision; image-rendering:optimizeQuality; fill-rule:evenodd; clip-rule:evenodd"
viewBox="0 0 52000 21500"
 xmlns:xlink="http://www.w3.org/1999/xlink"
 xmlns:xodm="http://www.corel.com/coreldraw/odm/2003">
 <defs>
  <style type="text/css">
   <![CDATA[
    .str0 {stroke:#373435;stroke-width:20;stroke-miterlimit:22.9256}
    .fil1 {fill:white}
    .fil0 {fill:#F9F6F7;fill-rule:nonzero}
   ]]>
  </style>
 </defs>
 <g id="Camada_x0020_1">
  <metadata id="CorelCorpID_0Corel-Layer"/>
  <path class="fil0" d="M9915.72 12527.79l290.36 -329.82c232.69,-263.82 220.76,-638.36 -28.42,-890.06l-1673.38 -1691.06c-286.69,-289.67 -671.14,-489.34 -1095.87,-565.96 -2201.84,-397.15 -4222.16,-562.88 -5987.61,-403.86 1968.66,247.38 3816.81,529.68 5355.87,901.69 471.67,114 893.18,352.97 1209.85,684.83l989.26 1036.5c144.23,151.02 181.58,361.07 96.92,544.69l0 0c-97.98,212.09 -328.49,350.28 -585.75,354.06 -2041.06,30.22 -4315.56,-270.43 -6727.46,-766.12 2156.64,810.9 4692.48,1243.48 7525.33,1379.88 244.22,11.83 479.81,-83.27 630.9,-254.77z"/>
  <path class="fil0" d="M19455.9 17706.84l-1638.93 -1765.95c-247.63,-266.96 -621.21,-414.84 -1009.27,-399.54l-5141.58 202.36 4805.51 241.95c281.9,14.26 542.84,137.5 714.33,337.41l830.53 968.23c-1404.91,549.52 -3379.36,704.35 -5503.62,755.04 2334.09,113.16 4648.74,3.78 6943.03,-339.5z"/>
  <path class="fil0" d="M28302.89 7816.16c-3058.95,1104.38 -5737.48,5185.46 -6306.79,10494.36l-8551.54 1734.65c-919.15,186.44 -1869.89,213.18 -2800.75,80.2 -3920.37,-560.29 -7865.13,-1666.62 -10323.74,-2909.4 2435.53,1626.37 5690.72,2724.04 9456.09,3492.95 1338.48,273.56 2726.24,296.12 4075.13,67.33l8525.86 -1446.52c1287.25,-5071.41 3248.39,-9068.76 6560.54,-10911.98 307.53,-171.15 655.31,-276.6 1015.34,-314.27l10332.32 -1079.58 -11289.14 653.12c-237.88,13.76 -472.4,59.38 -693.32,139.14z"/>
  <path class="fil0" d="M1971.16 15540.31c1437.52,897.35 3675.42,1544.42 6477.44,2015.51l931.36 -1736.43 -3704.34 -453.01 3026.96 641.49 -635.02 807.12c-2109.22,-56.21 -4138.51,-494.7 -6096.4,-1274.68z"/>
  <path class="fil0" d="M21432.36 4160.17c2055.65,-1030.5 4085.72,-1958.57 6070.82,-2706.52 3146.73,-581.95 6280.32,-720.3 9402.75,-495.93 210.61,15.1 327.04,224.71 213.73,383.28l-2082.91 2909.76 -13604.39 -90.59zm29394.14 1288.19c-177.79,-349.34 -512.75,-615.6 -922.27,-733.37l-1648.8 -474.22 -6209.54 65.94 0 -370.62c0,-493.16 -339.86,-937.57 -856.89,-1112.18 -244.89,-82.65 -511.97,-148.19 -798.54,-198.68 -573.88,-101.03 -1167.99,88.65 -1528.09,499.71 -348.49,397.55 -567.69,891.26 -660.32,1478.38l-2070.08 0c421.22,-1105.63 1409.36,-2413.8 2587.51,-3790.02 -3292.25,-690.53 -7090.17,-463.58 -11236.54,395.52 -2772.37,1013.45 -4849.59,2063.92 -6747.24,2958.6 -10783.93,422.93 -15877.86,1251.78 -19643.62,4225.93 4853.89,-2883.61 12601.77,-3684.17 20994.42,-4020.75l12664.85 119.36 -10571.13 2702.48 -12960.58 1923.93 9192.75 -508.31c154.56,-8.55 262.84,133.67 196.91,258.65l-300.24 568.84c-93.18,176.57 -262.66,312.42 -470.39,373.94 -1767.9,523.78 -3879.89,856.97 -6179.54,1086.46 2724.39,0 5284.54,-290.22 7688.07,-856.82l2399.14 -1876.37c195.39,-152.86 428.69,-262.14 680.77,-318.84l10078.57 -2266.61 13010.79 -679.36 1921.72 679.36 -7835.71 1166.2 8648.85 -593.24 1404.48 922.81 -829.31 -1626.72z"/>
  <polygon class="fil0" points="13659.13,10897.95 11219.64,9118.37 14866.97,10765.32 "/>
  <path class="fil1 str0" d="M34505.68 5579.31l13010.79 -679.36 1921.72 679.36 -7835.71 1166.2 8648.85 -593.24 1404.48 922.81 -829.31 -1626.72c-177.79,-349.34 -512.75,-615.6 -922.27,-733.37l-1648.8 -474.22 -6209.54 65.94 0 -370.62c0,-493.16 -339.86,-937.57 -856.89,-1112.18 -244.89,-82.65 -511.97,-148.19 -798.54,-198.68 -573.88,-101.03 -1167.99,88.65 -1528.09,499.71 -348.49,397.55 -567.69,891.26 -660.32,1478.38l-2070.08 0c421.22,-1105.63 1409.36,-2413.8 2587.51,-3790.02 -3292.25,-690.53 -7090.17,-463.58 -11236.54,395.52 -2772.37,1013.45 -4849.59,2063.92 -6747.24,2958.6 -10783.93,422.93 -15877.86,1251.78 -19643.62,4225.93 4853.89,-2883.61 12601.77,-3684.17 20994.42,-4020.75l12664.85 119.36 -10571.13 2702.48 -12960.58 1923.93 9192.75 -508.31c154.56,-8.55 262.84,133.67 196.91,258.65l-300.24 568.84c-93.18,176.57 -262.66,312.42 -470.39,373.94 -1453.59,430.66 -3139.82,732.48 -4971.7,953.83l-8.24 0.9c-393.45,47.46 -793.6,91.21 -1199.6,131.73 2724.39,0 5284.54,-290.22 7688.07,-856.82l2399.14 -1876.37c195.39,-152.86 428.69,-262.14 680.77,-318.84l10078.57 -2266.61zm531.07 -1328.55l-13604.39 -90.59c2055.65,-1030.5 4085.72,-1958.57 6070.82,-2706.52 3146.73,-581.95 6280.32,-720.3 9402.75,-495.93 210.61,15.1 327.04,224.71 213.73,383.28l-2082.91 2909.76z"/>
  <path class="fil1 str0" d="M22377.15 19329.73c1287.25,-5071.41 3248.39,-9068.76 6560.54,-10911.98 307.53,-171.15 655.31,-276.6 1015.34,-314.27l10332.32 -1079.58 -11289.14 653.12c-237.88,13.76 -472.4,59.38 -693.32,139.14 -3058.95,1104.38 -5737.48,5185.46 -6306.79,10494.36l-8551.54 1734.65c-919.15,186.44 -1869.89,213.18 -2800.75,80.2 -3920.37,-560.29 -7865.13,-1666.62 -10323.74,-2909.4 2435.53,1626.37 5690.72,2724.04 9456.09,3492.95 1338.48,273.56 2726.24,296.12 4075.13,67.33l8525.86 -1446.52z"/>
  <path class="fil1 str0" d="M19455.9 17706.84l-1638.93 -1765.95c-247.63,-266.96 -621.21,-414.84 -1009.27,-399.54l-5141.58 202.36 4805.51 241.95c281.9,14.26 542.84,137.5 714.33,337.41l830.53 968.23c-1404.91,549.52 -3379.36,704.35 -5503.62,755.04 2334.09,113.16 4648.74,3.78 6943.03,-339.5z"/>
  <path class="fil1 str0" d="M8448.6 17555.82l931.36 -1736.43 -3704.34 -453.01 3026.96 641.49 -635.02 807.12c-2109.22,-56.21 -4138.51,-494.7 -6096.4,-1274.68 1437.52,897.35 3675.42,1544.42 6477.44,2015.51z"/>
  <path class="fil1 str0" d="M9284.82 12782.56c244.22,11.83 479.81,-83.27 630.9,-254.77l290.36 -329.82c232.69,-263.82 220.76,-638.36 -28.42,-890.06l-1673.38 -1691.06c-286.69,-289.67 -671.14,-489.34 -1095.87,-565.96 -2201.84,-397.15 -4222.16,-562.88 -5987.61,-403.86 1968.66,247.38 3816.81,529.68 5355.87,901.69 471.67,114 893.18,352.97 1209.85,684.83l989.26 1036.5c144.23,151.02 181.58,361.07 96.92,544.69 -97.98,212.09 -328.49,350.28 -585.75,354.06 -2041.06,30.22 -4315.56,-270.43 -6727.46,-766.12 2156.64,810.9 4692.48,1243.48 7525.33,1379.88z"/>
 </g>
</svg>
