<?xml version="1.0" encoding="UTF-8"?>
<!DOCTYPE svg PUBLIC "-//W3C//DTD SVG 1.1//EN" "http://www.w3.org/Graphics/SVG/1.1/DTD/svg11.dtd">
<!-- Creator: CorelDRAW 2020 (64 Bit) -->
<svg xmlns="http://www.w3.org/2000/svg" xml:space="preserve" width="22mm" height="22mm" version="1.1" style="shape-rendering:geometricPrecision; text-rendering:geometricPrecision; image-rendering:optimizeQuality; fill-rule:evenodd; clip-rule:evenodd"
viewBox="0 0 2200 2200"
 xmlns:xlink="http://www.w3.org/1999/xlink"
 xmlns:xodm="http://www.corel.com/coreldraw/odm/2003">
 <defs>
  <style type="text/css">
   <![CDATA[
    .fil0 {fill:#010201;fill-rule:nonzero}
    .fil1 {fill:white;fill-rule:nonzero}
   ]]>
  </style>
 </defs>
 <g id="Camada_x0020_1">
  <metadata id="CorelCorpID_0Corel-Layer"/>
  <path class="fil0" d="M1095.81 136.55c552.28,0 1000,447.71 1000,1000 0,552.28 -447.72,1000 -1000,1000 -552.28,0 -1000,-447.72 -1000,-1000 0,-552.29 447.72,-1000 1000,-1000z"/>
  <path class="fil1" d="M1095.81 506.92c-171.01,0 -192.45,0.73 -259.6,3.79 -67.01,3.06 -112.78,13.7 -152.83,29.26 -41.41,16.09 -76.52,37.62 -111.53,72.63 -35,35.01 -56.53,70.11 -72.62,111.52 -15.55,40.05 -26.21,85.81 -29.26,152.83 -3.06,67.17 -3.79,88.59 -3.79,259.6 0,170.99 0.73,192.45 3.79,259.6 3.05,67.01 13.71,112.79 29.26,152.83 16.09,41.41 37.62,76.52 72.62,111.51 35.01,35.01 70.12,56.54 111.53,72.64 40.05,15.56 85.82,26.21 152.83,29.26 67.15,3.06 88.59,3.79 259.6,3.79 170.99,0 192.43,-0.73 259.59,-3.79 67.02,-3.05 112.79,-13.7 152.84,-29.26 41.41,-16.1 76.52,-37.63 111.53,-72.64 34.99,-34.99 56.53,-70.1 72.62,-111.51 15.55,-40.04 26.21,-85.82 29.26,-152.83 3.06,-67.15 3.79,-88.61 3.79,-259.6 0,-170.99 -0.73,-192.43 -3.79,-259.6 -3.05,-67.02 -13.71,-112.78 -29.26,-152.83 -16.09,-41.41 -37.63,-76.51 -72.62,-111.52 -35.01,-35.01 -70.12,-56.54 -111.53,-72.63 -40.05,-15.56 -85.82,-26.2 -152.84,-29.26 -67.16,-3.06 -88.6,-3.79 -259.59,-3.79l0 0zm0 113.46c168.12,0 188.03,0.63 254.43,3.65 61.38,2.82 94.71,13.07 116.9,21.69 29.4,11.43 50.37,25.07 72.4,47.1 22.03,22.03 35.68,43.01 47.1,72.38 8.62,22.2 18.87,55.53 21.69,116.92 3.02,66.4 3.66,86.31 3.66,254.43 0,168.12 -0.64,188.03 -3.66,254.43 -2.82,61.38 -13.07,94.73 -21.69,116.9 -11.42,29.4 -25.07,50.38 -47.1,72.4 -22.03,22.03 -43,35.68 -72.4,47.1 -22.19,8.62 -55.52,18.89 -116.9,21.67 -66.4,3.04 -86.3,3.68 -254.43,3.68 -168.13,0 -188.04,-0.64 -254.43,-3.68 -61.37,-2.78 -94.72,-13.05 -116.9,-21.67 -29.4,-11.42 -50.37,-25.07 -72.4,-47.1 -22.03,-22.02 -35.68,-43 -47.1,-72.4 -8.62,-22.17 -18.87,-55.52 -21.69,-116.9 -3.02,-66.4 -3.66,-86.31 -3.66,-254.43 0,-168.12 0.64,-188.03 3.66,-254.43 2.82,-61.39 13.07,-94.72 21.69,-116.92 11.42,-29.37 25.05,-50.35 47.1,-72.38 22.03,-22.03 43,-35.67 72.4,-47.1 22.18,-8.62 55.53,-18.87 116.9,-21.69 66.4,-3.02 86.31,-3.65 254.43,-3.65z"/>
  <path class="fil1" d="M1095.81 1346.43c-115.91,0 -209.88,-93.97 -209.88,-209.88 0,-115.91 93.97,-209.88 209.88,-209.88 115.91,0 209.88,93.97 209.88,209.88 0,115.91 -93.97,209.88 -209.88,209.88zm0 -533.2c-178.56,0 -323.32,144.76 -323.32,323.32 0,178.57 144.76,323.32 323.32,323.32 178.56,0 323.32,-144.75 323.32,-323.32 0,-178.56 -144.76,-323.32 -323.32,-323.32z"/>
  <path class="fil1" d="M1507.46 800.45c0,41.73 -33.83,75.55 -75.55,75.55 -41.73,0 -75.55,-33.82 -75.55,-75.55 0,-41.74 33.82,-75.56 75.55,-75.56 41.72,0 75.55,33.82 75.55,75.56z"/>
 </g>
</svg>
