<?xml version="1.0" encoding="UTF-8"?>
<!DOCTYPE svg PUBLIC "-//W3C//DTD SVG 1.1//EN" "http://www.w3.org/Graphics/SVG/1.1/DTD/svg11.dtd">
<!-- Creator: CorelDRAW 2020 (64 Bit) -->
<svg xmlns="http://www.w3.org/2000/svg" xml:space="preserve" width="22mm" height="22mm" version="1.1" style="shape-rendering:geometricPrecision; text-rendering:geometricPrecision; image-rendering:optimizeQuality; fill-rule:evenodd; clip-rule:evenodd"
viewBox="0 0 2200 2200"
 xmlns:xlink="http://www.w3.org/1999/xlink"
 xmlns:xodm="http://www.corel.com/coreldraw/odm/2003">
 <defs>
  <style type="text/css">
   <![CDATA[
    .fil0 {fill:#010201;fill-rule:nonzero}
    .fil1 {fill:white;fill-rule:nonzero}
   ]]>
  </style>
 </defs>
 <g id="Camada_x0020_1">
  <metadata id="CorelCorpID_0Corel-Layer"/>
  <path class="fil0" d="M2109.9 1093.86c0,-552.68 -447.72,-1000.7 -1000,-1000.7 -552.28,0 -1000,448.02 -1000,1000.7 0,499.47 365.69,913.47 843.75,988.53l0 -699.28 -253.92 0 0 -289.25 253.92 0 0 -220.46c0,-250.8 149.3,-389.34 377.71,-389.34 109.41,0 223.86,19.54 223.86,19.54l0 246.27 -126.11 0c-124.22,0 -162.96,77.13 -162.96,156.27l0 187.72 277.35 0 -44.34 289.25 -233.01 0 0 699.28c478.06,-75.06 843.75,-489.06 843.75,-988.53z"/>
  <path class="fil1" d="M1500.1 1381.72l44.34 -289.26 -277.35 0 0 -187.71c0,-79.14 38.74,-156.28 162.97,-156.28l126.1 0 0 -246.27c0,0 -114.44,-19.54 -223.85,-19.54 -228.42,0 -377.72,138.54 -377.72,389.34l0 220.46 -253.91 0 0 289.26 253.91 0 0 699.27c50.92,8.01 103.1,12.17 156.25,12.17 53.16,0 105.34,-4.16 156.25,-12.17l0 -699.27 233.01 0z"/>
 </g>
</svg>
