<?xml version="1.0" encoding="UTF-8"?>
<!DOCTYPE svg PUBLIC "-//W3C//DTD SVG 1.1//EN" "http://www.w3.org/Graphics/SVG/1.1/DTD/svg11.dtd">
<!-- Creator: CorelDRAW 2020 (64 Bit) -->
<svg xmlns="http://www.w3.org/2000/svg" xml:space="preserve" width="22mm" height="22mm" version="1.1" style="shape-rendering:geometricPrecision; text-rendering:geometricPrecision; image-rendering:optimizeQuality; fill-rule:evenodd; clip-rule:evenodd"
viewBox="0 0 2200 2200"
 xmlns:xlink="http://www.w3.org/1999/xlink"
 xmlns:xodm="http://www.corel.com/coreldraw/odm/2003">
 <defs>
  <style type="text/css">
   <![CDATA[
    .fil1 {fill:white}
    .fil0 {fill:#010201;fill-rule:nonzero}
   ]]>
  </style>
 </defs>
 <g id="Camada_x0020_1">
  <metadata id="CorelCorpID_0Corel-Layer"/>
  <path class="fil0" d="M2104.67 1101.28c0,552.28 -447.71,1000 -1000,1000 -552.28,0 -1000,-447.72 -1000,-1000 0,-552.29 447.72,-1000 1000,-1000 552.29,0 1000,447.71 1000,1000z"/>
  <path class="fil1" d="M1426.18 1213.49c-15.85,-7.93 -93.78,-46.27 -108.31,-51.56 -14.53,-5.27 -25.09,-7.92 -35.67,7.94 -10.55,15.86 -40.93,51.56 -50.18,62.14 -9.24,10.56 -18.49,11.89 -34.34,3.95 -15.85,-7.92 -66.92,-24.65 -127.47,-78.65 -47.12,-42 -78.93,-93.9 -88.17,-109.76 -9.25,-15.87 -1,-24.45 6.94,-32.34 7.13,-7.1 15.86,-18.51 23.78,-27.77 7.93,-9.24 10.56,-15.86 15.84,-26.43 5.3,-10.57 2.65,-19.83 -1.32,-27.76 -3.96,-7.94 -35.66,-85.92 -48.86,-117.66 -12.87,-30.89 -25.93,-26.71 -35.67,-27.2 -9.23,-0.46 -19.81,-0.55 -30.37,-0.55 -10.57,0 -27.74,3.96 -42.27,19.83 -14.54,15.87 -55.48,54.19 -55.48,132.19 0,77.98 56.8,153.33 64.73,163.91 7.92,10.58 111.76,170.64 270.77,239.27 37.82,16.33 67.34,26.08 90.36,33.38 37.98,12.06 72.54,10.36 99.84,6.28 30.44,-4.54 93.78,-38.34 106.99,-75.36 13.22,-37.01 13.22,-68.72 9.25,-75.33 -3.97,-6.61 -14.54,-10.58 -30.39,-18.52zm-289.21 394.77l-0.22 0c-94.61,-0.03 -187.4,-25.44 -268.36,-73.47l-19.26 -11.43 -199.55 52.33 53.27 -194.5 -12.55 -19.94c-52.77,-83.92 -80.65,-180.91 -80.61,-280.52 0.12,-290.62 236.66,-527.06 527.48,-527.06 140.83,0.06 273.23,54.96 372.77,154.57 99.55,99.65 154.33,232.08 154.3,372.92 -0.13,290.65 -236.66,527.1 -527.27,527.1zm448.74 -975.7c-119.76,-119.89 -279.05,-185.93 -448.74,-186 -349.68,0 -634.25,284.47 -634.39,634.14 -0.04,111.77 29.17,220.86 84.69,317.04l-90 328.62 336.28 -88.19c92.66,50.53 196.99,77.16 303.15,77.2l0.27 0c0.03,0 -0.01,0 0,0 349.61,0 634.22,-284.5 634.37,-634.16 0.06,-169.45 -65.85,-328.8 -185.63,-448.65z"/>
 </g>
</svg>
