<?xml version="1.0" encoding="UTF-8"?>
<!DOCTYPE svg PUBLIC "-//W3C//DTD SVG 1.1//EN" "http://www.w3.org/Graphics/SVG/1.1/DTD/svg11.dtd">
<!-- Creator: CorelDRAW 2020 (64 Bit) -->
<svg xmlns="http://www.w3.org/2000/svg" xml:space="preserve" width="700mm" height="215mm" version="1.1" style="shape-rendering:geometricPrecision; text-rendering:geometricPrecision; image-rendering:optimizeQuality; fill-rule:evenodd; clip-rule:evenodd"
viewBox="0 0 70000 21500"
 xmlns:xlink="http://www.w3.org/1999/xlink"
 xmlns:xodm="http://www.corel.com/coreldraw/odm/2003">
 <defs>
  <style type="text/css">
   <![CDATA[
    .str0 {stroke:#373435;stroke-width:20;stroke-miterlimit:22.9256}
    .fil1 {fill:white}
    .fil0 {fill:#F9F6F7;fill-rule:nonzero}
   ]]>
  </style>
 </defs>
 <g id="Camada_x0020_1">
  <metadata id="CorelCorpID_0Corel-Layer"/>
  <path class="fil0" d="M10025.71 12457.23l290.36 -329.82c232.69,-263.82 220.76,-638.36 -28.42,-890.06l-1673.38 -1691.06c-286.69,-289.67 -671.14,-489.34 -1095.87,-565.96 -2201.84,-397.15 -4222.16,-562.88 -5987.61,-403.86 1968.66,247.38 3816.81,529.68 5355.87,901.69 471.67,114 893.18,352.97 1209.85,684.83l989.26 1036.5c144.23,151.02 181.58,361.07 96.92,544.69l0 0c-97.98,212.09 -328.49,350.28 -585.75,354.06 -2041.06,30.22 -4315.56,-270.43 -6727.46,-766.12 2156.64,810.9 4692.48,1243.48 7525.33,1379.88 244.22,11.83 479.81,-83.27 630.9,-254.77z"/>
  <path class="fil0" d="M19565.89 17636.28l-1638.93 -1765.95c-247.63,-266.96 -621.21,-414.84 -1009.27,-399.54l-5141.58 202.36 4805.51 241.95c281.9,14.26 542.84,137.5 714.33,337.41l830.53 968.23c-1404.91,549.52 -3379.36,704.35 -5503.62,755.04 2334.09,113.16 4648.74,3.78 6943.03,-339.5z"/>
  <path class="fil0" d="M28412.88 7745.6c-3058.95,1104.38 -5737.48,5185.46 -6306.79,10494.36l-8551.54 1734.65c-919.15,186.44 -1869.89,213.18 -2800.75,80.2 -3920.37,-560.29 -7865.13,-1666.62 -10323.74,-2909.4 2435.53,1626.37 5690.72,2724.04 9456.09,3492.95 1338.48,273.56 2726.24,296.12 4075.13,67.33l8525.86 -1446.52c1287.25,-5071.41 3248.39,-9068.76 6560.54,-10911.98 307.53,-171.15 655.31,-276.6 1015.34,-314.27l10332.32 -1079.58 -11289.14 653.12c-237.88,13.76 -472.4,59.38 -693.32,139.14z"/>
  <path class="fil0" d="M2081.15 15469.75c1437.52,897.35 3675.42,1544.42 6477.44,2015.51l931.36 -1736.43 -3704.34 -453.01 3026.96 641.49 -635.02 807.12c-2109.22,-56.21 -4138.51,-494.7 -6096.4,-1274.68z"/>
  <path class="fil0" d="M21542.35 4089.61c2055.65,-1030.5 4085.72,-1958.57 6070.82,-2706.52 3146.73,-581.95 6280.32,-720.3 9402.75,-495.93 210.61,15.1 327.04,224.71 213.73,383.28l-2082.91 2909.76 -13604.39 -90.59zm29394.14 1288.19c-177.79,-349.34 -512.75,-615.6 -922.27,-733.37l-1648.8 -474.22 -6209.54 65.94 0 -370.62c0,-493.16 -339.86,-937.57 -856.89,-1112.18 -244.89,-82.65 -511.97,-148.19 -798.54,-198.68 -573.88,-101.03 -1167.99,88.65 -1528.09,499.71 -348.49,397.55 -567.69,891.26 -660.32,1478.38l-2070.08 0c421.22,-1105.63 1409.36,-2413.8 2587.51,-3790.02 -3292.25,-690.53 -7090.17,-463.58 -11236.54,395.52 -2772.37,1013.45 -4849.59,2063.92 -6747.24,2958.6 -10783.93,422.93 -15877.86,1251.78 -19643.62,4225.93 4853.89,-2883.61 12601.77,-3684.17 20994.42,-4020.75l12664.85 119.36 -10571.13 2702.48 -12960.58 1923.93 9192.75 -508.31c154.56,-8.55 262.84,133.67 196.91,258.65l-300.24 568.84c-93.18,176.57 -262.66,312.42 -470.39,373.94 -1767.9,523.78 -3879.89,856.97 -6179.54,1086.46 2724.39,0 5284.54,-290.22 7688.07,-856.82l2399.14 -1876.37c195.39,-152.86 428.69,-262.14 680.77,-318.84l10078.57 -2266.61 13010.79 -679.36 1921.72 679.36 -7835.71 1166.2 8648.85 -593.24 1404.48 922.81 -829.31 -1626.72z"/>
  <polygon class="fil0" points="13769.12,10827.39 11329.63,9047.81 14976.96,10694.76 "/>
  <path class="fil1 str0" d="M34615.67 5508.75l13010.79 -679.36 1921.72 679.36 -7835.71 1166.2 8648.85 -593.24 1404.48 922.81 -829.31 -1626.72c-177.79,-349.34 -512.75,-615.6 -922.27,-733.37l-1648.8 -474.22 -6209.54 65.94 0 -370.62c0,-493.16 -339.86,-937.57 -856.89,-1112.18 -244.89,-82.65 -511.97,-148.19 -798.54,-198.68 -573.88,-101.03 -1167.99,88.65 -1528.09,499.71 -348.49,397.55 -567.69,891.26 -660.32,1478.38l-2070.08 0c421.22,-1105.63 1409.36,-2413.8 2587.51,-3790.02 -3292.25,-690.53 -7090.17,-463.58 -11236.54,395.52 -2772.37,1013.45 -4849.59,2063.92 -6747.24,2958.6 -10783.93,422.93 -15877.86,1251.78 -19643.62,4225.93 4853.89,-2883.61 12601.77,-3684.17 20994.42,-4020.75l12664.85 119.36 -10571.13 2702.48 -12960.58 1923.93 9192.75 -508.31c154.56,-8.55 262.84,133.67 196.91,258.65l-300.24 568.84c-93.18,176.57 -262.66,312.42 -470.39,373.94 -1453.59,430.66 -3139.82,732.48 -4971.7,953.83l-8.24 0.9c-393.45,47.46 -793.6,91.21 -1199.6,131.73 2724.39,0 5284.54,-290.22 7688.07,-856.82l2399.14 -1876.37c195.39,-152.86 428.69,-262.14 680.77,-318.84l10078.57 -2266.61zm531.07 -1328.55l-13604.39 -90.59c2055.65,-1030.5 4085.72,-1958.57 6070.82,-2706.52 3146.73,-581.95 6280.32,-720.3 9402.75,-495.93 210.61,15.1 327.04,224.71 213.73,383.28l-2082.91 2909.76z"/>
  <path class="fil1 str0" d="M22487.14 19259.17c1287.25,-5071.41 3248.39,-9068.76 6560.54,-10911.98 307.53,-171.15 655.31,-276.6 1015.34,-314.27l10332.32 -1079.58 -11289.14 653.12c-237.88,13.76 -472.4,59.38 -693.32,139.14 -3058.95,1104.38 -5737.48,5185.46 -6306.79,10494.36l-8551.54 1734.65c-919.15,186.44 -1869.89,213.18 -2800.75,80.2 -3920.37,-560.29 -7865.13,-1666.62 -10323.74,-2909.4 2435.53,1626.37 5690.72,2724.04 9456.09,3492.95 1338.48,273.56 2726.24,296.12 4075.13,67.33l8525.86 -1446.52z"/>
  <path class="fil1 str0" d="M19565.89 17636.28l-1638.93 -1765.95c-247.63,-266.96 -621.21,-414.84 -1009.27,-399.54l-5141.58 202.36 4805.51 241.95c281.9,14.26 542.84,137.5 714.33,337.41l830.53 968.23c-1404.91,549.52 -3379.36,704.35 -5503.62,755.04 2334.09,113.16 4648.74,3.78 6943.03,-339.5z"/>
  <path class="fil1 str0" d="M8558.59 17485.26l931.36 -1736.43 -3704.34 -453.01 3026.96 641.49 -635.02 807.12c-2109.22,-56.21 -4138.51,-494.7 -6096.4,-1274.68 1437.52,897.35 3675.42,1544.42 6477.44,2015.51z"/>
  <path class="fil1 str0" d="M9394.81 12712c244.22,11.83 479.81,-83.27 630.9,-254.77l290.36 -329.82c232.69,-263.82 220.76,-638.36 -28.42,-890.06l-1673.38 -1691.06c-286.69,-289.67 -671.14,-489.34 -1095.87,-565.96 -2201.84,-397.15 -4222.16,-562.88 -5987.61,-403.86 1968.66,247.38 3816.81,529.68 5355.87,901.69 471.67,114 893.18,352.97 1209.85,684.83l989.26 1036.5c144.23,151.02 181.58,361.07 96.92,544.69 -97.98,212.09 -328.49,350.28 -585.75,354.06 -2041.06,30.22 -4315.56,-270.43 -6727.46,-766.12 2156.64,810.9 4692.48,1243.48 7525.33,1379.88z"/>
  <path class="fil1 str0" d="M31153.1 16390.35l658.81 -1896.63 -3717.93 0 489.08 -1428.22 3717.93 0 647.93 -1873.61 -4027.76 0.02c-935.68,0 -1543.98,552.87 -1936.47,1689.3l-630.79 1819.84c-62.3,184.29 -107.53,345.53 -138.8,499.11 -162.59,798.58 123.27,1190.19 910.23,1190.19l4027.77 0z"/>
  <path class="fil1 str0" d="M31898.22 15561.05c-80.13,393.57 -0.17,651.08 288.29,763.87 111.12,43.45 253.19,65.43 428.97,65.43l1527.2 0 2411.11 0 826.85 0 461.94 -1332.66 518.17 -1494.83 236.28 -681.65c24.22,-70.4 45.97,-138.37 65.25,-203.88 29.09,-98.85 52.56,-192.14 70.42,-279.87 165.73,-813.93 -126.33,-1205.55 -907.09,-1205.55l-1948.89 0 -2370.11 0 -5.73 16.55 -642.2 1857.04 1793.93 0 599.13 0 1609.91 0 -105.91 307.14 -1606.45 0 -660.15 0 -831.67 0c-749.8,0 -1167.26,406.97 -1428.95,1174.83l-228.96 668.05c-43.61,122.86 -79.45,238.04 -101.34,345.53zm4407.4 -890.71l-1589.2 0 -597.69 0 -279.33 0 112.11 -307.15 245.09 0 622.27 0 1598.86 0 -112.11 307.15z"/>
  <path class="fil1 str0" d="M38834.53 13562.86l-523.87 1516.44 -452.9 1311.05 1292.9 0 367.78 0 524.87 -1512.7 1514.88 0 994.72 0 -403.38 1159.48c-15.57,46.07 -31.15,92.14 -38.97,130.54 -21.89,107.5 -11.17,176.61 29.01,222.68l1654.49 0c-23.95,-27.46 -37.98,-60.36 -40.79,-105.22 -1.89,-30.42 1.37,-66.34 10.21,-109.78 6.25,-30.72 21.83,-76.79 37.4,-122.86l362.91 -1051.97 85.76 -299.47c100.07,-491.44 -107.33,-598.93 -286.96,-629.65 262.06,-59.03 492.78,-160.59 756.39,-890.46 10.74,-29.75 21.53,-60.53 32.39,-92.41l137.03 -401.86 109.08 -319.92c43.6,-122.86 74.81,-245.73 95.13,-345.55 111,-545.18 -79.01,-829.29 -704.86,-829.29l-123.61 0 -2475.21 0 -2135.34 0 -513.14 1485.42 -305.92 885.53zm4081.66 -121.11l-2376.04 0 186.94 -552.86 2373.59 0 61.65 0 -186.93 552.86 -59.21 0z"/>
  <path class="fil1 str0" d="M45071.22 13526.22c-110.99,545.18 83.66,836.97 715.71,836.97l2918.58 0 -112.12 307.15 -110.33 0 -2897.02 0 -933.65 0 -577.39 1677.89 -14.49 42.12 685.28 0 3881.58 0c749.79,0 1175.02,-414.64 1435.14,-1174.83l260.12 -760.18c43.6,-122.87 73.26,-238.04 93.58,-337.87 111,-545.19 -82.08,-844.65 -707.94,-844.65l-2912.38 0 71.44 -214.69 56.31 -169.24 2111.68 0 1723.98 0 490.05 -1416.23 97.14 -280.75 -1507.44 0 -2960.27 0c-743.59,0 -1167.27,406.97 -1428.95,1174.84l-108.98 319.92 -139.05 408.19 -29.23 85.82c-43.6,122.86 -79.45,238.04 -101.35,345.54z"/>
  <polygon class="fil1 str0" points="51622.88,11970.3 50095.96,16390.35 50320.25,16390.35 50918.09,16390.35 51756.64,16390.35 52356.27,14662.65 53905.75,14662.65 54587.02,14662.65 53987.4,16390.35 55648.07,16390.35 55683,16289.24 56884.78,12810.4 57443.89,11191.91 56732.71,11191.91 55783.22,11191.91 55191.34,12911.93 52960.58,12911.93 53552.46,11191.91 52651.94,11191.91 51891.78,11191.91 "/>
  <path class="fil1 str0" d="M57774.36 11962.02c-175.43,246.27 -324.63,552.32 -451.34,919.19l-339.55 979.61 -291.24 840.23c-62.31,184.29 -107.54,345.53 -138.8,499.11 -162.6,798.58 123.26,1190.19 910.22,1190.19l1244.23 0 598.01 0 1237.46 0c868.98,0 1475.4,-489.74 1870.96,-1494.82 24.72,-62.81 48.62,-127.64 71.7,-194.48l630.79 -1819.84c24.22,-70.4 45.96,-138.37 65.24,-203.88 29.09,-98.85 52.56,-192.14 70.43,-279.87 164.16,-806.26 -132.53,-1205.55 -913.3,-1205.55l-1299.42 0 -597.46 0 -1182.8 0c-633.63,0 -1117.12,253.53 -1485.13,770.11zm1147.03 1103.48l895.79 0 597.66 0 960.39 0 -489.09 1428.22 -947.66 0 -597.81 0 -908.36 0 489.08 -1428.22z"/>
  <path class="fil1 str0" d="M64148.57 11191.91l-513.14 1485.42 -766.29 2218.2 -516.4 1494.84 1660.68 -0.02 362.91 -1051.97 2955.75 0c19.49,0 38.74,-0.25 57.74,-0.74 724.16,-18.85 1098.87,-398.49 1403.91,-1273.92l587.19 -1696.97c43.6,-122.86 73.25,-238.04 93.58,-337.86 111,-545.18 -83.65,-836.98 -709.5,-836.98l-2134.76 0 -16.09 0 -2465.58 0zm752.63 2633.77l320.86 -936.79 593.95 0 1729.76 0 -320.86 936.79 -1684.96 0 -638.75 0z"/>
  <path class="fil1 str0" d="M27157.43 19208.82c469.68,-117.82 919.36,-453.39 1125.86,-863.24 258.8,-512.32 11.31,-904.23 -562.74,-904.23 -574.05,0 -1215.59,389.36 -1475.28,904.23 -258.8,512.31 -14.95,906.79 558.2,909.36 31.16,240.78 179.65,381.66 421.36,381.66 178.53,0 410.5,-74.28 621.04,-197.24l-21.77 -212.61c-172.34,92.22 -326.63,148.57 -428.26,148.57 -109.86,0 -187.25,-61.47 -238.41,-166.5zm793.52 -863.24c-179.44,356.05 -626.81,637.82 -1003.1,637.82 -376.28,0 -552.42,-281.77 -372.97,-637.82 179.44,-356.06 633.23,-632.7 1012.28,-632.7 376.28,0 543.23,276.64 363.79,632.7z"/>
  <path class="fil1 str0" d="M28413.49 18727.25c-163.2,325.32 -65.51,525.12 269.58,525.12 239.85,-2.56 467.17,-87.09 662.54,-276.64l-134.36 266.39 315.87 0 688.03 -1362.74 -315.87 0 -339.05 671.13c-119.02,238.22 -361.15,420.09 -615.63,425.22 -211.49,0 -277.47,-125.53 -172.84,-330.45l385.92 -765.9 -315.86 0 -428.33 847.87z"/>
  <path class="fil1 str0" d="M30776.75 18637.59l395.52 0 -63.12 125.53c-90.4,148.57 -321.19,258.71 -546.42,258.71 -175.78,0 -241.39,-79.41 -179.17,-202.36 64.9,-130.64 187.2,-181.88 393.19,-181.88zm61.51 -215.17c-352.46,2.56 -633.23,161.39 -758.56,409.85 -122.66,240.79 -15.97,422.67 299.9,422.67 211.5,0 407.89,-58.93 573.57,-179.31l-82.93 166.49 310.36 0 447.21 -893.98c148.75,-299.7 27.42,-479.01 -348.87,-479.01 -277.42,0 -454.57,58.92 -713.71,171.63l24.46 204.92c191.56,-92.22 361.49,-138.32 501.57,-138.32 230.71,0 296.52,102.45 209.04,274.08l-19.83 40.98 -442.21 0z"/>
  <polygon class="fil1 str0" points="32575.85,17341.44 31617.33,19242.12 31933.19,19242.12 32891.72,17341.44 "/>
  <polygon class="fil1 str0" points="33101.88,17879.38 32413.86,19242.12 32726.97,19242.12 33414.99,17879.38 "/>
  <path class="fil1 str0" d="M33270.99 17490.02c-52.31,102.46 -9.63,176.75 94.75,176.75 104.37,0 220.98,-74.29 273.3,-176.75 53.2,-105.02 10.51,-179.31 -93.86,-179.31 -104.38,0 -220.99,74.29 -274.19,179.31z"/>
  <path class="fil1 str0" d="M34443.98 17866.56c-412,0 -833.74,279.21 -1040.23,689.06 -208.28,414.98 -74.25,699.32 345.99,699.32 233.47,0 453.44,-87.1 638.06,-245.91l-117.21 233.09 315.86 0 958.54 -1900.68 -315.87 0 -391.37 773.6c-26.86,-158.82 -157.55,-248.48 -393.77,-248.48zm-54.82 251.04c263.68,0 355.73,184.43 222.28,448.28 -131.67,258.71 -407.66,443.15 -671.33,443.15 -266.43,0 -355.75,-184.44 -226.82,-443.15 135.3,-261.28 412.19,-448.28 675.87,-448.28z"/>
  <path class="fil1 str0" d="M35638.29 18040.76l24.48 204.92c191.54,-92.22 361.48,-138.32 501.55,-138.32 230.72,0 296.52,102.45 209.04,274.08l-19.82 40.98 -442.21 0c-352.47,2.56 -633.23,161.39 -758.57,409.85 -122.65,240.79 -15.96,422.67 299.91,422.67 211.49,0 407.88,-58.93 573.58,-179.31l-82.95 166.49 310.37 0 447.2 -893.98c148.75,-299.7 27.43,-479.01 -348.87,-479.01 -277.42,0 -454.57,58.92 -713.71,171.63zm211.52 596.83l395.52 0 -63.12 125.53c-90.4,148.57 -321.18,258.71 -546.42,258.71 -175.78,0 -241.39,-79.41 -179.17,-202.36 64.9,-130.64 187.2,-181.88 393.19,-181.88z"/>
  <path class="fil1 str0" d="M37926.73 17866.56c-412,0 -833.74,279.21 -1040.23,689.06 -208.28,414.98 -74.25,699.32 345.99,699.32 233.47,0 453.44,-87.1 638.07,-245.91l-117.22 233.09 315.87 0 958.52 -1900.68 -315.85 0 -391.38 773.6c-26.85,-158.82 -157.56,-248.48 -393.77,-248.48zm-730.7 699.32c135.32,-261.28 412.2,-448.28 675.88,-448.28 263.67,0 355.74,184.43 222.28,448.28 -131.67,258.71 -407.66,443.15 -671.34,443.15 -266.41,0 -355.74,-184.44 -226.82,-443.15z"/>
  <path class="fil1 str0" d="M39842.99 17869.13c-434.86,2.56 -881.32,281.77 -1088.7,694.18 -206.49,409.85 -51.44,689.06 399,689.06 252.7,0 504.74,-84.53 720.59,-230.54l-81.85 -166.5c-159.43,102.46 -332.94,158.81 -492.25,158.81 -230.73,0 -338.85,-130.64 -281.89,-340.68l1104.17 0c287.34,-491.82 234.55,-804.33 -279.07,-804.33zm-722.39 589.16c144.81,-217.73 376.31,-353.5 607.03,-353.5 238.96,0 326.96,133.21 227.96,353.5l-834.99 0z"/>
  <path class="fil1 str0" d="M42166.65 17869.13c-434.87,2.56 -881.33,281.77 -1088.71,694.18 -206.49,409.85 -51.44,689.06 399,689.06 252.7,0 504.74,-84.53 720.6,-230.54l-81.86 -166.5c-159.43,102.46 -332.94,158.81 -492.25,158.81 -230.72,0 -338.85,-130.64 -281.88,-340.68l1104.16 0c287.34,-491.82 234.56,-804.33 -279.06,-804.33zm-115.37 235.66c238.96,0 326.97,133.21 227.96,353.5l-834.98 0c144.8,-217.73 376.3,-353.5 607.02,-353.5z"/>
  <path class="fil1 str0" d="M44023.37 17869.13c-241.7,0 -468.13,81.97 -667.15,274.08l133.47 -263.83 -313.12 0 -688.02 1362.74 313.11 0 339.96 -673.68c119.01,-238.23 365.73,-417.54 621.12,-425.23 214.24,0 280.2,125.52 174.7,333.01l-385.94 765.9 315.87 0 339.95 -673.68c119.01,-238.23 362.99,-417.54 615.62,-425.23 214.24,0 282.96,125.52 177.44,333.01l-385.93 765.9 315.86 0 428.33 -847.87c163.19,-325.32 62.78,-525.12 -272.31,-525.12 -266.42,0 -510.1,99.9 -718.92,327.88 36.85,-207.49 -83.1,-327.88 -344.04,-327.88z"/>
  <path class="fil1 str0" d="M47352.31 17869.13c-433.98,0 -878.59,281.77 -1085.97,694.18 -206.49,409.85 -45.94,689.06 388.02,689.06 277.42,0 537.64,-92.22 750.62,-253.6l-93.74 -163.94c-152.97,107.59 -329.24,163.94 -513.27,163.94 -252.68,0 -347.43,-176.74 -215.76,-435.46 131.66,-258.71 402.22,-435.47 654.9,-435.47 176.69,-2.55 285.17,56.36 339.03,153.7l269.53 -189.55c-62.44,-143.46 -229.68,-222.86 -493.36,-222.86z"/>
  <path class="fil1 str0" d="M48835.49 17869.13c-277.41,0 -454.57,58.92 -713.71,171.63l24.47 204.92c191.55,-92.22 361.48,-138.32 501.56,-138.32 230.71,0 296.52,102.45 209.04,274.08l-19.82 40.98 -442.21 0c-352.47,2.56 -633.24,161.39 -758.57,409.85 -122.65,240.79 -15.96,422.67 299.9,422.67 211.5,0 407.89,-58.93 573.58,-179.31l-82.94 166.49 310.37 0 447.2 -893.98c148.75,-299.7 27.43,-479.01 -348.87,-479.01zm-502.19 768.46l395.52 0 -63.12 125.53c-90.4,148.57 -321.19,258.71 -546.42,258.71 -175.78,0 -241.39,-79.41 -179.17,-202.36 64.91,-130.64 187.2,-181.88 393.19,-181.88z"/>
  <path class="fil1 str0" d="M50410.23 17866.56c-412.01,0 -833.75,279.21 -1040.24,689.06 -208.29,414.98 -74.25,699.32 345.99,699.32 233.47,0 453.43,-87.1 638.07,-245.91l-117.22 233.09 315.86 0 958.53 -1900.68 -315.86 0 -391.37 773.6c-26.86,-158.82 -157.56,-248.48 -393.76,-248.48zm-54.83 251.04c263.68,0 355.74,184.43 222.28,448.28 -131.68,258.71 -407.66,443.15 -671.34,443.15 -266.42,0 -355.74,-184.44 -226.81,-443.15 135.31,-261.28 412.19,-448.28 675.87,-448.28z"/>
  <path class="fil1 str0" d="M51604.53 18040.76l24.47 204.92c191.56,-92.22 361.49,-138.32 501.57,-138.32 230.71,0 296.51,102.45 209.04,274.08l-19.84 40.98 -442.21 0c-352.46,2.56 -633.23,161.39 -758.56,409.85 -122.65,240.79 -15.96,422.67 299.91,422.67 211.48,0 407.87,-58.93 573.57,-179.31l-82.95 166.49 310.38 0 447.21 -893.98c148.75,-299.7 27.41,-479.01 -348.88,-479.01 -277.42,0 -454.56,58.92 -713.71,171.63zm607.04 596.83l-63.11 125.53c-90.41,148.57 -321.19,258.71 -546.42,258.71 -175.78,0 -241.39,-79.41 -179.18,-202.36 64.91,-130.64 187.19,-181.88 393.2,-181.88l395.51 0z"/>
  <path class="fil1 str0" d="M53662.28 18345.58c-258.79,512.31 -14.94,906.79 558.2,909.36 31.16,240.78 179.65,381.66 421.36,381.66 178.53,0 410.5,-74.28 621.04,-197.24l-21.77 -212.61c-172.34,92.22 -326.63,148.57 -428.26,148.57 -109.86,0 -187.25,-61.47 -238.41,-166.5 469.68,-117.82 919.37,-453.39 1125.86,-863.24 258.8,-512.32 11.31,-904.23 -562.73,-904.23 -574.05,0 -1215.58,389.36 -1475.29,904.23zm702.59 637.82c-376.28,0 -552.43,-281.77 -372.98,-637.82 179.44,-356.06 633.24,-632.7 1012.28,-632.7 376.28,0 543.23,276.64 363.79,632.7 -179.44,356.05 -626.8,637.82 -1003.09,637.82z"/>
  <path class="fil1 str0" d="M55830.51 18727.25c-163.19,325.32 -65.51,525.12 269.57,525.12 239.85,-2.56 467.17,-87.09 662.55,-276.64l-134.37 266.39 315.87 0 688.03 -1362.74 -315.86 0 -339.06 671.13c-119.01,238.22 -361.14,420.09 -615.63,425.22 -211.49,0 -277.46,-125.53 -172.83,-330.45l385.93 -765.9 -315.87 0 -428.33 847.87z"/>
  <polygon class="fil1 str0" points="58099.1,17879.38 57411.08,19242.12 57724.19,19242.12 58412.21,17879.38 "/>
  <path class="fil1 str0" d="M58268.2 17490.02c-52.3,102.46 -9.61,176.75 94.76,176.75 104.38,0 220.99,-74.29 273.3,-176.75 53.2,-105.02 10.51,-179.31 -93.87,-179.31 -104.37,0 -220.99,74.29 -274.19,179.31z"/>
  <polygon class="fil1 str0" points="59163.38,17341.44 58204.85,19242.12 58520.72,19242.12 59479.25,17341.44 "/>
  <polygon class="fil1 str0" points="60531.15,17451.6 60586.91,17677.01 60845.1,17677.01 60743.42,17315.83 60452.29,17315.83 59988.13,17677.01 60246.33,17677.01 "/>
  <path class="fil1 str0" d="M60731.07 18560.75c207.4,-412.41 38.61,-691.62 -411.84,-691.62 -453.2,0 -905.16,279.21 -1112.54,691.62 -206.49,409.85 -38.6,691.62 414.6,691.62 450.45,0 903.29,-281.77 1109.78,-691.62zm-538.99 -438.02c260.94,0 354.81,179.3 222.24,440.58 -133.47,263.84 -407.66,443.15 -668.59,443.15 -263.68,0 -357.53,-179.31 -224.07,-443.15 132.56,-261.28 406.75,-440.58 670.42,-440.58z"/>
  <path class="fil1 str0" d="M62252.86 17869.13c-241.7,0 -468.13,81.97 -667.15,274.08l133.47 -263.83 -313.12 0 -688.02 1362.74 313.11 0 339.96 -673.68c119,-238.23 365.73,-417.54 621.12,-425.23 214.24,0 280.2,125.52 174.69,333.01l-385.93 765.9 315.86 0 339.95 -673.68c119.01,-238.23 363,-417.54 615.63,-425.23 214.23,0 282.96,125.52 177.44,333.01l-385.93 765.9 315.86 0 428.33 -847.87c163.19,-325.32 62.77,-525.12 -272.31,-525.12 -266.43,0 -510.11,99.9 -718.92,327.88 36.85,-207.49 -83.11,-327.88 -344.04,-327.88z"/>
  <path class="fil1 str0" d="M64875.91 17869.13c-434.87,2.56 -881.33,281.77 -1088.71,694.18 -206.49,409.85 -51.44,689.06 399.01,689.06 252.69,0 504.73,-84.53 720.59,-230.54l-81.86 -166.5c-159.43,102.46 -332.94,158.81 -492.25,158.81 -230.72,0 -338.85,-130.64 -281.89,-340.68l1104.17 0c287.34,-491.82 234.55,-804.33 -279.06,-804.33zm-115.37 235.66c238.96,0 326.96,133.21 227.96,353.5l-834.98 0c144.8,-217.73 376.3,-353.5 607.02,-353.5z"/>
  <path class="fil1 str0" d="M65711.36 17930.6l-112.73 220.3 205.99 0 -354.34 706.99c-141.59,279.21 -12.51,397.05 207.23,397.05 123.6,0 262.49,-35.87 411.23,-99.91l34.87 -225.42c-104.07,38.43 -185.4,58.92 -251.31,58.92 -98.88,0 -133.1,-43.54 -61.86,-184.43l327.3 -653.2 431.22 0 112.75 -220.3 -431.24 0 188.46 -373.98 -313.11 0 -188.47 373.98 -205.99 0z"/>
  <path class="fil1 str0" d="M67828.55 17869.13c-230.72,0 -457.03,97.34 -647.86,281.77l138.89 -271.52 -315.86 0 -688.02 1362.74 315.85 0 358.89 -712.11c141.94,-233.1 409.87,-394.48 695.63,-379.11l142.48 -281.77z"/>
  <path class="fil1 str0" d="M68715.72 17869.13c-453.2,0 -905.15,279.21 -1112.54,691.62 -206.49,409.85 -38.6,691.62 414.6,691.62 450.45,0 903.3,-281.77 1109.79,-691.62 207.38,-412.41 38.59,-691.62 -411.85,-691.62zm-797.57 694.18c132.56,-261.28 406.75,-440.58 670.43,-440.58 260.93,0 354.8,179.3 222.23,440.58 -133.46,263.84 -407.66,443.15 -668.58,443.15 -263.68,0 -357.54,-179.31 -224.08,-443.15z"/>
  <path class="fil1 str0" d="M69340.06 18927.06c-98.88,0 -210.96,69.15 -258.72,166.49 -51.42,99.9 -10.58,171.63 88.3,171.63 98.87,0 206.36,-71.73 257.76,-171.63 47.78,-97.34 11.54,-166.49 -87.34,-166.49z"/>
 </g>
</svg>
