<?xml version="1.0" encoding="UTF-8"?>
<!DOCTYPE svg PUBLIC "-//W3C//DTD SVG 1.1//EN" "http://www.w3.org/Graphics/SVG/1.1/DTD/svg11.dtd">
<!-- Creator: CorelDRAW 2020 (64 Bit) -->
<svg xmlns="http://www.w3.org/2000/svg" xml:space="preserve" width="68mm" height="68mm" version="1.1" style="shape-rendering:geometricPrecision; text-rendering:geometricPrecision; image-rendering:optimizeQuality; fill-rule:evenodd; clip-rule:evenodd"
viewBox="0 0 6800 6800"
 xmlns:xlink="http://www.w3.org/1999/xlink"
 xmlns:xodm="http://www.corel.com/coreldraw/odm/2003">
 <defs>
  <style type="text/css">
   <![CDATA[
    .str0 {stroke:#373435;stroke-width:20;stroke-miterlimit:22.9256}
    .fil0 {fill:white}
   ]]>
  </style>
 </defs>
 <g id="Camada_x0020_1">
  <metadata id="CorelCorpID_0Corel-Layer"/>
  <path class="fil0 str0" d="M187.67 2546.84c-28,650.25 231.95,1387.06 644.05,1817.81 839.24,877.21 2089.05,1150.54 3164.06,547.68 137.01,-76.83 254.73,-182.64 377.73,-243.52 115.88,65.8 905.9,884.42 1070.7,1049.29l795.99 803.58c251.01,216.47 604.38,-146.23 366.8,-392.36 -279.71,-289.78 -1755.86,-1702.72 -1839.82,-1854.44 64.66,-129.25 169.71,-244.97 252.22,-394.51 751.84,-1362.52 73.8,-3091.84 -1330.65,-3618.93 -1713.62,-643.14 -3427.94,586.7 -3501.08,2285.4zm3855.73 1677.6c-367.3,307.09 -927.88,533.54 -1561.71,445.23 -1023.73,-142.63 -1903.24,-1089.8 -1733.36,-2297.48 142.94,-1016.24 1089.9,-1898.68 2301.04,-1723.18 991.22,143.65 1907.19,1096.89 1718.71,2279.81 -100.93,633.38 -390.09,1015.89 -724.68,1295.62z"/>
 </g>
</svg>
